# xmcd
#
# Track frame offsets: 
#        150
#        19364
#        33442
#        57961
#        82489
#        101826
#        121807
#        142413
#        160600
#        177861
#        199779
#
# Disc length: 2981 seconds
#
# Revision: 1
# Processed by: cddbd v1.5.1PL2 Copyright (c) Steve Scherf et al.
# Submitted via: ExactAudioCopy v0.95b3
#
DISCID=9e0ba30b
DTITLE=Tom Grant - Nice Work If You Can Get It
DYEAR=2004
DGENRE=Jazz
TTITLE0=Nice Work If You Can Get It
TTITLE1=You Make Me Feel So Young
TTITLE2=I Concentrate On You
TTITLE3=People Will Say We Are In Love
TTITLE4=All Of You
TTITLE5=Celia
TTITLE6=On Green Dolphin Street
TTITLE7=Desafinado
TTITLE8=Both Sides Now
TTITLE9=A Felicidade
TTITLE10=Im Old Fashioned
EXTD=YEAR: 2002
EXTT0=
EXTT1=
EXTT2=
EXTT3=
EXTT4=
EXTT5=
EXTT6=
EXTT7=
EXTT8=
EXTT9=
EXTT10=
PLAYORDER=
